# xmcd
#
# Track frame offsets:
#	150
#	13880
#	33077
#	54420
#	68872
#	86207
#	105177
#	125730
#	147540
#	165470
#	180000
#	202275
#	222220
#
# Disc length: 3123 seconds
#
# Revision: 4
# Processed by: cddbd v1.5.2PL0 Copyright (c) Steve Scherf et al.
# Submitted via: dBpowerAMP V4.0
#
DISCID=b50c310d
DTITLE=Marvin Gaye - Marvin is 60 CD2
DYEAR=1999
DGENRE=Soul
TTITLE0=For your precious love
TTITLE1=Distant lover
TTITLE2=You sure love to ball
TTITLE3=Mercy mercy me
TTITLE4=What's going on
TTITLE5=Got to give it up
TTITLE6=I want you
TTITLE7=Let's get it on
TTITLE8=Sexual healing
TTITLE9=Soon i'll be loving you again
TTITLE10=Till tomorrow
TTITLE11=Just to keep you satisfied
TTITLE12=If this world were mine
EXTD=
EXTT0=
EXTT1=
EXTT2=
EXTT3=
EXTT4=
EXTT5=
EXTT6=
EXTT7=
EXTT8=
EXTT9=
EXTT10=
EXTT11=
EXTT12=
PLAYORDER=
